# xmcd CD database file
#
# Track frame offsets:
#	150
#	13203
#	31842
#	38915
#	57027
#	75149
#
# Disc length: 1216 seconds
#
# Revision: 0
# Processed by: cddbd v1.5.2PL0 Copyright (c) Steve Scherf et al.
# Submitted via: CDex 1.70
#
DISCID=3704be06
DTITLE=Dwight Trible and The Life Force Trio - Equipoise
DYEAR=2005
DGENRE=Jazz
TTITLE0=Equipoise (Radio Edit)
TTITLE1=Equipoise (Album Version)
TTITLE2=Rise
TTITLE3=Waves Of Infinite Harmony
TTITLE4=Waves Of Infinite Harmony (Instrumental)
TTITLE5=Otherworldly
EXTD=YEAR: 2005
EXTT0=
EXTT1=
EXTT2=
EXTT3=
EXTT4=
EXTT5=
PLAYORDER=
